<?xml version="1.0" encoding="UTF-8"?>
<svg version="1.1" viewBox="0 0 1000 1000" width="1000" height="1000" xmlns="http://www.w3.org/2000/svg">
<path transform="translate(482,5)" d="m0 0h36l30 2 31 4 31 6 34 9 29 10 29 12 23 11 23 13 18 11 19 13 16 12 11 9 13 11 13 12 25 25 7 8 11 13 13 17 13 18 12 19 11 19 12 23 11 24 11 29 8 25 8 32 5 27 4 32 2 31v29l-2 32-4 31-6 31-7 27-12 36-11 27-15 31-14 24-10 16-12 17-12 16-11 13-9 11-9 9-7 8-11 11-8 7-12 11-28 22-20 14-21 13-18 10-21 11-25 11-27 10-29 9-34 8-30 5-29 3-19 1h-35l-31-2-37-5-37-8-34-10-32-12-24-11-22-11-24-14-25-17-19-14-13-11-11-9-7-7-8-7-18-18-7-8-9-10-11-14-10-13-12-17-12-19-12-21-10-19-14-32-10-28-9-30-7-32-5-32-3-35v-49l3-35 5-32 7-32 9-30 7-20 12-29 10-21 13-23 12-20 11-16 14-19 11-13 9-11 15-16 20-20 8-7 14-12 17-13 18-13 22-14 23-13 28-14 32-13 33-11 32-8 26-5 31-4z"/>
<path transform="translate(482,5)" d="m0 0h36l30 2 31 4 31 6 34 9 29 10 29 12 23 11 23 13 18 11 19 13 16 12 11 9 13 11 13 12 25 25 7 8 11 13 13 17 13 18 12 19 11 19 12 23 11 24 11 29 8 25 8 32 5 27 4 32 1 13v17l-7-6-7-8-22-24-9-9-7-8-17-17-7-8-31-31-9-14-7-15-11-34-9-30-7-20-8-17-9-13-8-8-11-6-9-2h-10l-14 3-15 6-16 10-14 12-13 13-9 11-13 17-8 12-13 21-6 11-5 1-17-3-11-1h-44l-31 3-26 4-27 6-24 7-24 9-25 12-13 8-11 7-8-16-11-23-9-14-9-10-9-5-8-1-12 3-13 7-10 8-12 12-11 15-10 17-8 16-3 4-9-19-4-5-11-7-8-2h-10l-10 3-9 6-5 6-4 9-6 36-7 21-10 19-8 11-9 10-10 10-20 15-21 16-6 7-3 7-1 12 3 10 6 9 10 6 16 8 12 7 16 12 12 11 10 10 13 17 9 15 3 6-1 17-3 37-1 17v51l3 30 5 28 7 25 8 22 9 19 3 5-1 2-24-16-19-14-13-11-11-9-7-7-8-7-18-18-7-8-9-10-11-14-10-13-12-17-12-19-12-21-10-19-14-32-10-28-9-30-7-32-5-32-3-35v-49l3-35 5-32 7-32 9-30 7-20 12-29 10-21 13-23 12-20 11-16 14-19 11-13 9-11 15-16 20-20 8-7 14-12 17-13 18-13 22-14 23-13 28-14 32-13 33-11 32-8 26-5 31-4z" fill="#FEFEFE"/>
<path transform="translate(633,518)" d="m0 0h47l26 3 24 5 22 7 15 6 16 8 14 8 17 13 13 12 10 11 10 14 8 14 7 14 8 24 2 10v23l-3 14-6 16-9 16-11 14-12 13-11 10-16 12-17 11-16 9-24 12-27 11-36 12-49 13-39 9-32 6-34 4h-43l-20-3-15-4-15-6-11-6-13-10-10-10-10-14-10-21-6-20-3-14-2-22v-12l2-21 5-22 6-18 10-21 12-19 9-11 9-10 4-5 8-7 11-10 16-12 18-11 23-12 23-10 27-9 28-7 30-5z" fill="#FEFEFE"/>
<path transform="translate(237,426)" d="m0 0h7l5 5 10 21 7 11 10 13 12 12 15 11 21 11 13 6 3 3 1 2v6l-5 5-13 11-13 13-11 16-8 15-7 21-3 15-4 47-3 6-4 2-7-1-3-3-14-43-10-21-9-13-12-14-13-11-18-11-18-8-6-3-3-5 1-6 8-7 17-12 12-11 9-10 7-10 9-16 7-19 5-22 3-5z" fill="#FEFEFE"/>
<path transform="translate(598,372)" d="m0 0h18l21 2 16 4 9 4 6 4 6 7 3 9v14l-4 8-5 4-11 2-49 7-49 9-47 10-47 12-36 11-6-1-8-5-4-6-2-11 2-9 7-11 10-10 15-11 21-12 26-11 26-8 28-6 28-4z" fill="#FEFEFE"/>
<path transform="translate(702,598)" d="m0 0h12l10 5 4 5 4 9v14l-4 8-8 8-11 9-12 12 7 2 31 4 10 4 5 4 5 8 1 3v13l-5 10-7 6-7 3h-18l-28-4-19-5-12-5-11-7-6-7-5-10-1-4v-13l3-10 7-13 9-11 12-13 16-15 12-8z"/>
<path transform="translate(514,639)" d="m0 0h7l10 3 10 9 4 7 6 35 6 22 8 19 8 14 1 3v15l-5 10-4 5-8 5-7 2h-9l-11-4-7-6-8-13-8-16-7-19-6-22-4-21-2-20 3-12 7-9 8-5z"/>
<path transform="translate(773,259)" d="m0 0 9 1 6 4 2 4v9l-6 9-15 15-10 14-9 16-12 28-5 7-4 2h-8l-6-5-2-10 2-15 5-19 7-16 8-14 9-11 11-11 10-6z" fill="#FEFEFE"/>
<path transform="translate(237,488)" d="m0 0h8l6 3 5 6 1 3v8l-4 11-6 10-7 9-9 9-12 6h-7l-6-3-5-6-1-2v-11l4-7 11-8 7-10 6-10 4-5z"/>
</svg>
