<?xml version="1.0" encoding="UTF-8"?>
<svg version="1.1" viewBox="0 0 1000 1000" width="1000" height="1000" xmlns="http://www.w3.org/2000/svg">
<path transform="translate(475,5)" d="m0 0h50l35 3 32 5 27 6 29 8 26 9 26 11 25 12 24 13 19 12 16 11 16 12 10 8 13 11 12 11 13 12 16 17 9 10 9 11 14 18 16 23 12 20 10 18 9 17 11 25 11 29 8 26 7 28 5 26 4 31 2 31v39l-3 36-5 33-7 32-9 30-10 28-11 25-9 19-13 23-11 18-13 19-16 21-11 13-9 10-7 8-25 25-8 7-13 11-17 13-18 13-22 14-21 12-15 8-24 11-31 12-28 9-33 8-27 5-35 4-16 1h-48l-35-3-33-5-31-7-34-10-29-11-27-12-20-10-24-14-10-7-18-12-21-16-13-11-8-7-10-9-26-26-7-8-11-13-13-17-13-18-12-19-11-19-12-23-11-24-11-29-9-29-7-28-6-34-3-27-1-14v-57l3-33 6-36 7-30 9-30 11-29 12-27 14-27 12-20 14-21 14-19 9-11 11-13 11-12 29-29 11-9 14-12 19-14 24-16 24-14 27-14 30-13 28-10 28-8 36-8 36-5z" fill="#FDFDFD"/>
<path transform="translate(475,5)" d="m0 0h50l35 3 32 5 27 6 29 8 26 9 26 11 25 12 24 13 19 12 16 11 16 12 10 8 13 11 12 11 13 12 16 17 9 10 9 11 14 18 16 23 12 20 10 18 9 17 11 25 11 29 8 26 7 28 5 26 4 31 2 31-1 3-15-16-7-8-12-13-8-8-7-8-15-15-7-8-34-34-9-12-8-17-10-30-13-43-8-20-9-17-8-10-8-6-8-4-8-2h-13l-15 4-14 6-14 9-13 11-16 16-11 14-10 13-11 17-11 19-5 8-13-2-17-2h-48l-38 4-28 5-28 7-29 10-20 9-19 10-15 10h-3l-12-26-10-19-8-11-7-7-8-4-10-1-12 4-11 6-10 8-6 5-9 11-10 14-12 21-6 12-3-3-5-12-8-10-12-6-4-1h-12l-10 3-8 6-6 7-4 11-4 27-5 19-7 16-8 14-11 14-13 13-20 15-21 16-7 8-4 11v9l3 10 7 9 23 12 14 8 12 9 13 11 12 12 13 17 11 18 2 4-1 16-3 36-1 17v55l3 29 4 23 8 30 8 21 10 21 2 5-8-4-19-13-21-16-13-11-8-7-10-9-26-26-7-8-11-13-13-17-13-18-12-19-11-19-12-23-11-24-11-29-9-29-7-28-6-34-3-27-1-14v-57l3-33 6-36 7-30 9-30 11-29 12-27 14-27 12-20 14-21 14-19 9-11 11-13 11-12 29-29 11-9 14-12 19-14 24-16 24-14 27-14 30-13 28-10 28-8 36-8 36-5z" fill="#575757"/>
<path transform="translate(636,518)" d="m0 0h41l28 3 28 6 27 9 25 12 16 10 14 11 14 13 9 11 9 12 9 16 7 15 6 18 3 14v21l-3 15-6 16-8 14-12 16-12 13-8 7-15 12-18 12-19 11-22 11-27 11-35 12-45 12-42 10-37 7-23 3-12 1h-39l-22-3-18-5-18-8-12-8-12-11-10-12-9-16-8-20-5-21-2-13v-37l3-19 6-21 6-15 8-16 10-16 10-13 11-12 15-15 17-13 18-12 18-10 21-10 27-10 24-7 27-6 29-4z" fill="#575757"/>
<path transform="translate(237,426)" d="m0 0h7l5 5 11 23 8 12 9 11 12 12 14 10 14 8 20 9 4 5-1 7-5 5-10 8-9 8-9 11-10 15-8 17-5 15-3 15-4 47-3 7-5 2-6-1-4-6-14-43-8-16-9-14-12-14-10-9-13-9-19-10-12-5-4-4v-8l8-7 16-11 12-11 7-7 11-15 9-17 6-17 5-22z" fill="#575757"/>
<path transform="translate(605,372)" d="m0 0 24 1 17 3 12 4 10 6 6 7 3 10v12l-3 8-6 5-66 10-44 8-42 9-44 11-44 13-9-3-7-8-2-4v-13l4-9 7-9 11-10 13-9 14-8 21-10 33-11 26-6 26-4 18-2z" fill="#575757"/>
<path transform="translate(701,598)" d="m0 0h13l9 4 6 7 3 7 1 10-3 10-7 8-12 11-8 7-6 6 15 3 24 3 10 5 5 4 5 9 1 9-2 9-6 8-6 5-5 2h-20l-28-4-19-5-13-6-9-6-7-8-4-8-1-4v-15l4-12 9-14 12-14 15-15 11-9 10-6z" fill="#FEFEFE"/>
<path transform="translate(513,639)" d="m0 0h9l11 4 7 6 6 12 6 36 6 20 7 17 8 14 2 12-3 12-7 9-8 5-7 2h-9l-9-3-8-6-7-10-9-17-8-21-6-22-4-22-2-15v-7l3-10 6-8 9-6z" fill="#FEFEFE"/>
<path transform="translate(769,260)" d="m0 0h13l7 6 1 2v8l-4 8-17 17-11 15-11 21-10 24-4 5-4 2h-7l-6-4-2-4v-16l4-18 7-19 10-18 11-13 8-8 9-6z" fill="#575757"/>
<path transform="translate(237,488)" d="m0 0h9l6 4 4 5 1 2v10l-5 12-9 14-8 9-12 8-3 1h-8l-6-3-5-6-2-9 3-9 6-5 7-5 16-24z" fill="#FEFEFE"/>
</svg>
