<?xml version="1.0" encoding="UTF-8"?>
<svg version="1.1" viewBox="0 0 1000 1000" width="1000" height="1000" xmlns="http://www.w3.org/2000/svg">
<path transform="translate(482,5)" d="m0 0h36l30 2 31 4 31 6 34 9 29 10 29 12 23 11 23 13 18 11 19 13 16 12 11 9 13 11 13 12 25 25 7 8 11 13 13 17 13 18 12 19 11 19 12 23 11 24 11 29 8 25 8 32 5 27 4 32 2 31v29l-2 32-4 31-6 31-7 27-12 36-11 27-15 31-14 24-10 16-12 17-12 16-11 13-9 11-9 9-7 8-11 11-8 7-12 11-28 22-20 14-21 13-18 10-21 11-25 11-27 10-29 9-34 8-30 5-29 3-19 1h-35l-31-2-37-5-37-8-34-10-32-12-24-11-22-11-24-14-25-17-19-14-13-11-11-9-7-7-8-7-18-18-7-8-9-10-11-14-10-13-12-17-12-19-12-21-10-19-14-32-10-28-9-30-7-32-5-32-3-35v-49l3-35 5-32 7-32 9-30 7-20 12-29 10-21 13-23 12-20 11-16 14-19 11-13 9-11 15-16 20-20 8-7 14-12 17-13 18-13 22-14 23-13 28-14 32-13 33-11 32-8 26-5 31-4z" fill="#FEFEFE"/>
<path transform="translate(482,5)" d="m0 0h36l30 2 31 4 31 6 34 9 29 10 29 12 23 11 23 13 18 11 19 13 16 12 11 9 13 11 13 12 25 25 7 8 11 13 13 17 13 18 12 19 11 19 12 23 11 24 11 29 8 25 8 32 5 27 4 32 1 13v17l-6-5-7-8-12-13-9-10-10-10-7-8-15-15-7-8-33-33-9-13-7-15-11-33-12-40-9-22-7-13-7-9-7-7-14-7-6-1h-11l-16 4-14 6-15 10-13 11-14 14-9 11-12 16-10 15-18 30-21-3-10-1h-46l-31 3-36 6-24 6-33 11-20 9-19 10-12 8-5 3-7-14-11-23-9-15-10-11-9-5-9-1-13 4-11 6-10 8-12 12-11 15-9 15-8 15-3 7-3-4-8-16-4-5-10-6-7-2h-12l-11 4-6 4-6 7-4 8-4 26-5 21-6 15-8 15-9 12-9 10-8 8-20 15-21 16-7 8-3 7-1 5v7l3 10 6 9 10 6 16 8 15 9 13 10 12 11 9 9 11 14 9 14 6 11-1 17-3 36-1 17v53l3 30 5 27 6 22 7 20 11 24 3 5-1 2-24-16-19-14-13-11-11-9-7-7-8-7-18-18-7-8-9-10-11-14-10-13-12-17-12-19-12-21-10-19-14-32-10-28-9-30-7-32-5-32-3-35v-49l3-35 5-32 7-32 9-30 7-20 12-29 10-21 13-23 12-20 11-16 14-19 11-13 9-11 15-16 20-20 8-7 14-12 17-13 18-13 22-14 23-13 28-14 32-13 33-11 32-8 26-5 31-4z"/>
<path transform="translate(634,518)" d="m0 0h45l26 3 24 5 20 6 25 10 18 10 13 9 11 9 12 11 12 14 10 15 12 23 8 24 2 11v22l-4 17-6 15-9 15-10 13-12 13-10 9-17 13-17 11-18 10-22 11-30 12-37 12-53 14-41 9-37 6-20 2h-41l-21-3-21-6-17-8-11-8-10-9-8-9-9-14-8-17-6-20-4-22-1-22 2-25 6-25 7-19 8-16 8-14 13-17 11-12 15-15 14-11 16-11 19-11 25-12 24-9 23-7 26-6 25-4z"/>
<path transform="translate(237,426)" d="m0 0h7l5 5 11 23 8 12 9 11 12 12 14 10 12 7 21 9 5 6-1 7-5 5-11 9-14 14-10 14-9 17-7 21-3 15-4 47-3 6-4 2-7-1-4-6-13-40-7-15-8-14-9-11-9-10-14-11-13-8-15-7-10-4-3-4-1-5 3-5 9-7 14-10 12-11 10-11 9-14 8-16 6-18 4-18 2-4z"/>
<path transform="translate(602,372)" d="m0 0h11l24 2 19 5 11 6 7 8 3 10v12l-3 8-6 5-12 2-48 7-44 8-43 9-56 14-37 11-9-3-8-9-1-3v-13l4-9 7-9 12-11 15-10 23-12 20-8 18-6 30-7 25-4 19-2z"/>
<path transform="translate(702,598)" d="m0 0h12l10 5 4 5 4 9 1 8-2 9-4 6-8 8-11 9-11 11 8 2 31 4 10 5 5 5 5 8v15l-4 8-8 7-6 3h-19l-28-4-20-5-17-8-9-8-6-10-2-6v-15l5-14 8-12 13-15 12-12 8-7 11-8z" fill="#FEFEFE"/>
<path transform="translate(514,639)" d="m0 0h7l10 3 8 6 6 10 3 17 4 22 6 21 8 18 7 12 1 3v15l-6 12-9 7-9 3h-9l-11-4-7-6-10-16-9-20-6-18-6-25-4-28 1-11 4-8 6-7 10-5z" fill="#FEFEFE"/>
<path transform="translate(773,259)" d="m0 0 9 1 5 3 3 5v8l-4 8-17 17-10 14-8 14-9 20-5 12-4 5-4 2h-7l-5-3-3-5v-16l4-18 6-17 9-17 10-13 11-11 11-7z"/>
<path transform="translate(237,488)" d="m0 0h9l6 4 4 5 1 3v9l-5 12-7 11-8 10-11 8-6 3h-8l-6-3-5-6-2-8 2-8 5-6 9-6 16-24z" fill="#FEFEFE"/>
</svg>
